M48
;DRILL file {KiCad (2015-11-19 BZR 6326, Git 08d9b36)-product} date Sun 22 Nov 2015 09:39:29 PM EST
;FORMAT={-:-/ absolute / metric / decimal}
FMAT,2
METRIC,TZ
T1C0.400
T2C0.600
T3C0.813
T4C1.016
%
G90
G05
M71
T1
X21.546Y-31.077
X25.436Y-30.269
X25.593Y-31.69
X27.763Y-30.942
T2
X19.177Y-14.732
X20.447Y-14.732
X21.717Y-14.732
X28.067Y-14.732
X29.337Y-14.732
X30.607Y-14.732
T3
X20.719Y-24.257
X22.715Y-24.257
T4
X14.097Y-14.097
X14.097Y-16.637
X14.097Y-19.177
X14.097Y-21.717
X35.687Y-14.097
X35.687Y-16.637
X35.687Y-19.177
X35.687Y-21.717
T0
M30
