G04 #@! TF.FileFunction,Legend,Bot*
%FSLAX46Y46*%
G04 Gerber Fmt 4.6, Leading zero omitted, Abs format (unit mm)*
G04 Created by KiCad (PCBNEW (2015-11-19 BZR 6326, Git 08d9b36)-product) date Sun 22 Nov 2015 09:39:14 PM EST*
%MOMM*%
G01*
G04 APERTURE LIST*
%ADD10C,0.100000*%
%ADD11C,0.088900*%
G04 APERTURE END LIST*
D10*
D11*
X20952339Y-20698944D02*
X20952339Y-19428944D01*
X21436148Y-19428944D01*
X21557101Y-19489420D01*
X21617577Y-19549896D01*
X21678053Y-19670849D01*
X21678053Y-19852277D01*
X21617577Y-19973230D01*
X21557101Y-20033706D01*
X21436148Y-20094182D01*
X20952339Y-20094182D01*
X22766625Y-19852277D02*
X22766625Y-20698944D01*
X22464244Y-19368468D02*
X22161863Y-20275610D01*
X22948053Y-20275610D01*
X19652827Y-26424104D02*
X19652827Y-27331247D01*
X19592351Y-27512675D01*
X19471399Y-27633628D01*
X19289970Y-27694104D01*
X19169018Y-27694104D01*
X20197113Y-27633628D02*
X20378541Y-27694104D01*
X20680922Y-27694104D01*
X20801875Y-27633628D01*
X20862351Y-27573151D01*
X20922827Y-27452199D01*
X20922827Y-27331247D01*
X20862351Y-27210294D01*
X20801875Y-27149818D01*
X20680922Y-27089342D01*
X20439018Y-27028866D01*
X20318065Y-26968390D01*
X20257589Y-26907913D01*
X20197113Y-26786961D01*
X20197113Y-26666009D01*
X20257589Y-26545056D01*
X20318065Y-26484580D01*
X20439018Y-26424104D01*
X20741398Y-26424104D01*
X20922827Y-26484580D01*
X21285684Y-26424104D02*
X22011399Y-26424104D01*
X21648542Y-27694104D02*
X21648542Y-26424104D01*
X22434732Y-27210294D02*
X23402351Y-27210294D01*
X24007113Y-27694104D02*
X24007113Y-26424104D01*
X24490922Y-26424104D01*
X24611875Y-26484580D01*
X24672351Y-26545056D01*
X24732827Y-26666009D01*
X24732827Y-26847437D01*
X24672351Y-26968390D01*
X24611875Y-27028866D01*
X24490922Y-27089342D01*
X24007113Y-27089342D01*
X25277113Y-27694104D02*
X25277113Y-26424104D01*
X25277113Y-27028866D02*
X26002827Y-27028866D01*
X26002827Y-27694104D02*
X26002827Y-26424104D01*
X26547113Y-26545056D02*
X26607589Y-26484580D01*
X26728541Y-26424104D01*
X27030922Y-26424104D01*
X27151875Y-26484580D01*
X27212351Y-26545056D01*
X27272827Y-26666009D01*
X27272827Y-26786961D01*
X27212351Y-26968390D01*
X26486637Y-27694104D01*
X27272827Y-27694104D01*
M02*
