G04 #@! TF.FileFunction,Copper,L1,Top,Signal*
%FSLAX46Y46*%
G04 Gerber Fmt 4.6, Leading zero omitted, Abs format (unit mm)*
G04 Created by KiCad (PCBNEW (2015-11-19 BZR 6326, Git 08d9b36)-product) date Sun 22 Nov 2015 09:39:14 PM EST*
%MOMM*%
G01*
G04 APERTURE LIST*
%ADD10C,0.100000*%
%ADD11R,1.200000X0.750000*%
%ADD12R,1.200000X0.900000*%
%ADD13R,1.550000X0.600000*%
%ADD14R,2.032000X1.727200*%
%ADD15O,2.032000X1.727200*%
%ADD16R,2.301240X0.500380*%
%ADD17R,2.499360X1.998980*%
%ADD18O,0.899160X1.501140*%
%ADD19R,1.000000X2.750000*%
%ADD20R,1.060000X0.650000*%
%ADD21C,1.676400*%
%ADD22R,2.499360X2.301240*%
%ADD23C,0.600000*%
%ADD24C,0.200000*%
G04 APERTURE END LIST*
D10*
D11*
X30292000Y-24257000D03*
X32192000Y-24257000D03*
D12*
X34587000Y-25527000D03*
X36787000Y-25527000D03*
D13*
X24097000Y-29337000D03*
X24097000Y-30607000D03*
X24097000Y-31877000D03*
X24097000Y-33147000D03*
X29497000Y-33147000D03*
X29497000Y-31877000D03*
X29497000Y-30607000D03*
X29497000Y-29337000D03*
D14*
X14097000Y-14097000D03*
D15*
X14097000Y-16637000D03*
X14097000Y-19177000D03*
X14097000Y-21717000D03*
D14*
X35687000Y-14097000D03*
D15*
X35687000Y-16637000D03*
X35687000Y-19177000D03*
X35687000Y-21717000D03*
D16*
X19451320Y-30276800D03*
X19451320Y-31076900D03*
X19451320Y-31877000D03*
X19451320Y-32677100D03*
X19451320Y-33477200D03*
D17*
X19352260Y-27426920D03*
X13853160Y-27426920D03*
X19352260Y-36327080D03*
X13853160Y-36327080D03*
D18*
X20447000Y-14732000D03*
X19177000Y-14732000D03*
X21717000Y-14732000D03*
X29337000Y-14732000D03*
X28067000Y-14732000D03*
X30607000Y-14732000D03*
D19*
X32417000Y-28367000D03*
X32417000Y-34117000D03*
X36417000Y-34117000D03*
X36417000Y-28367000D03*
D20*
X25697000Y-23942000D03*
X25697000Y-24892000D03*
X25697000Y-25842000D03*
X27897000Y-25842000D03*
X27897000Y-23942000D03*
D21*
X22715220Y-24257000D03*
X20718780Y-24257000D03*
D22*
X26553160Y-19812000D03*
X30850840Y-19812000D03*
D23*
X25436400Y-30269300D03*
X25593300Y-31689800D03*
X21545600Y-31076900D03*
X27762800Y-30941800D03*
D24*
X27897000Y-23942000D02*
X25697000Y-23942000D01*
X19451300Y-30276800D02*
X20902200Y-30276800D01*
X32192000Y-24257000D02*
X32192000Y-24932300D01*
X29497000Y-27578100D02*
X29497000Y-29337000D01*
X29546200Y-27578100D02*
X32192000Y-24932300D01*
X29497000Y-27578100D02*
X29546200Y-27578100D01*
X20447000Y-13681100D02*
X29337000Y-13681100D01*
X20447000Y-14732000D02*
X20447000Y-13681100D01*
X29337000Y-14732000D02*
X29337000Y-13681100D01*
X20902200Y-30276800D02*
X24693300Y-26485700D01*
X28404600Y-26485700D02*
X29497000Y-27578100D01*
X24693300Y-26485700D02*
X28404600Y-26485700D01*
X22715200Y-24257000D02*
X24693300Y-24257000D01*
X24866700Y-24083600D02*
X24693300Y-24257000D01*
X24866700Y-23942000D02*
X24866700Y-24083600D01*
X24693300Y-24257000D02*
X24693300Y-26485700D01*
X25697000Y-23942000D02*
X24866700Y-23942000D01*
X24097000Y-33147000D02*
X23021700Y-33147000D01*
X22691500Y-33477200D02*
X19451300Y-33477200D01*
X23021700Y-33147000D02*
X22691500Y-33477200D01*
X24097000Y-33147000D02*
X25172300Y-33147000D01*
X32417000Y-34117000D02*
X32417000Y-33279300D01*
X25772600Y-33747300D02*
X25172300Y-33147000D01*
X31949000Y-33747300D02*
X25772600Y-33747300D01*
X32417000Y-33279300D02*
X31949000Y-33747300D01*
X19352300Y-36327100D02*
X19352300Y-35677200D01*
X13853200Y-36327100D02*
X15403200Y-36327100D01*
X19451300Y-33477200D02*
X18725900Y-33477200D01*
X19352300Y-35677200D02*
X18725900Y-35677200D01*
X16053100Y-35677200D02*
X15403200Y-36327100D01*
X18725900Y-35677200D02*
X16053100Y-35677200D01*
X25697000Y-24892000D02*
X26527300Y-24892000D01*
X30292000Y-24257000D02*
X29391700Y-24257000D01*
X26851900Y-24567400D02*
X26527300Y-24892000D01*
X29081300Y-24567400D02*
X26851900Y-24567400D01*
X29391700Y-24257000D02*
X29081300Y-24567400D01*
X30292000Y-24257000D02*
X30292000Y-23581700D01*
X14097000Y-14097000D02*
X15413300Y-14097000D01*
X13853200Y-27426900D02*
X13853200Y-26127100D01*
X18725900Y-33477200D02*
X18725900Y-35677200D01*
X13853200Y-28922300D02*
X13853200Y-27426900D01*
X18408100Y-33477200D02*
X13853200Y-28922300D01*
X18725900Y-33477200D02*
X18408100Y-33477200D01*
X19352300Y-25623500D02*
X20035600Y-24940200D01*
X19352300Y-27426900D02*
X19352300Y-25623500D01*
X20035600Y-24940200D02*
X15093400Y-19997900D01*
X15413300Y-19678000D02*
X15093400Y-19997900D01*
X15413300Y-14097000D02*
X15413300Y-19678000D01*
X12758000Y-25031900D02*
X13853200Y-26127100D01*
X12758000Y-21213700D02*
X12758000Y-25031900D01*
X13524700Y-20447000D02*
X12758000Y-21213700D01*
X14644300Y-20447000D02*
X13524700Y-20447000D01*
X15093400Y-19997900D02*
X14644300Y-20447000D01*
X29391700Y-24101400D02*
X29391700Y-24257000D01*
X26553200Y-21262900D02*
X29391700Y-24101400D01*
X26553200Y-19812000D02*
X26553200Y-21262900D01*
X20035600Y-24940200D02*
X20718800Y-24257000D01*
X23712900Y-21262900D02*
X26553200Y-21262900D01*
X20718800Y-24257000D02*
X23712900Y-21262900D01*
X32417000Y-28367000D02*
X32417000Y-26691700D01*
X30699900Y-23173800D02*
X35487400Y-23173800D01*
X30292000Y-23581700D02*
X30699900Y-23173800D01*
X35487400Y-23080500D02*
X35487400Y-23173800D01*
X35687000Y-22880900D02*
X35487400Y-23080500D01*
X34950500Y-26691700D02*
X32417000Y-26691700D01*
X35487400Y-26154800D02*
X34950500Y-26691700D01*
X35487400Y-23173800D02*
X35487400Y-26154800D01*
X35687000Y-21717000D02*
X35687000Y-22880900D01*
X33391900Y-23581600D02*
X34587000Y-24776700D01*
X31412600Y-23581600D02*
X33391900Y-23581600D01*
X31192400Y-23801800D02*
X31412600Y-23581600D01*
X31192400Y-24756300D02*
X31192400Y-23801800D01*
X30787200Y-25161500D02*
X31192400Y-24756300D01*
X27207800Y-25161500D02*
X30787200Y-25161500D01*
X26527300Y-25842000D02*
X27207800Y-25161500D01*
X25697000Y-25842000D02*
X26527300Y-25842000D01*
X34587000Y-25527000D02*
X34587000Y-24776700D01*
X37034300Y-24529400D02*
X36787000Y-24776700D01*
X37034300Y-21222000D02*
X37034300Y-24529400D01*
X36259300Y-20447000D02*
X37034300Y-21222000D01*
X33035800Y-20447000D02*
X36259300Y-20447000D01*
X32400800Y-19812000D02*
X33035800Y-20447000D01*
X30850800Y-19812000D02*
X32400800Y-19812000D01*
X36787000Y-25527000D02*
X36787000Y-24776700D01*
X25543400Y-29337000D02*
X24097000Y-29337000D01*
X26213000Y-30006600D02*
X25543400Y-29337000D01*
X31140100Y-30006600D02*
X26213000Y-30006600D01*
X31201800Y-30068300D02*
X31140100Y-30006600D01*
X36417000Y-30068300D02*
X31201800Y-30068300D01*
X36417000Y-28367000D02*
X36417000Y-30068300D01*
X36417000Y-30068300D02*
X36417000Y-34117000D01*
X25172300Y-30533400D02*
X25172300Y-30607000D01*
X25436400Y-30269300D02*
X25172300Y-30533400D01*
X24097000Y-30607000D02*
X25172300Y-30607000D01*
X25359500Y-31689800D02*
X25172300Y-31877000D01*
X25593300Y-31689800D02*
X25359500Y-31689800D01*
X24097000Y-31877000D02*
X25172300Y-31877000D01*
X29497000Y-33147000D02*
X28421700Y-33147000D01*
X21718700Y-31877000D02*
X19451300Y-31877000D01*
X22388400Y-32546700D02*
X21718700Y-31877000D01*
X27821400Y-32546700D02*
X22388400Y-32546700D01*
X28421700Y-33147000D02*
X27821400Y-32546700D01*
X17802200Y-26586100D02*
X14097000Y-22880900D01*
X17802200Y-31678800D02*
X17802200Y-26586100D01*
X18000400Y-31877000D02*
X17802200Y-31678800D01*
X19451300Y-31877000D02*
X18000400Y-31877000D01*
X14097000Y-21717000D02*
X14097000Y-22880900D01*
X29497000Y-31877000D02*
X28421700Y-31877000D01*
X19451300Y-31076900D02*
X20902200Y-31076900D01*
X20902200Y-31076900D02*
X21545600Y-31076900D01*
X26703500Y-31877000D02*
X28421700Y-31877000D01*
X25916000Y-31089500D02*
X26703500Y-31877000D01*
X25344700Y-31089500D02*
X25916000Y-31089500D01*
X25157500Y-31276700D02*
X25344700Y-31089500D01*
X21745400Y-31276700D02*
X25157500Y-31276700D01*
X21545600Y-31076900D02*
X21745400Y-31276700D01*
X28086900Y-30941800D02*
X28421700Y-30607000D01*
X27762800Y-30941800D02*
X28086900Y-30941800D01*
X29497000Y-30607000D02*
X28421700Y-30607000D01*
X30297200Y-18013100D02*
X35687000Y-18013100D01*
X28067000Y-15782900D02*
X30297200Y-18013100D01*
X28067000Y-14732000D02*
X28067000Y-15782900D01*
X35687000Y-19177000D02*
X35687000Y-18013100D01*
M02*
